<?xml version="1.0" standalone="no"?>
<!DOCTYPE svg PUBLIC "-//W3C//DTD SVG 20010904//EN"
 "http://www.w3.org/TR/2001/REC-SVG-20010904/DTD/svg10.dtd">
<svg version="1.0" xmlns="http://www.w3.org/2000/svg"
 width="1249.000000pt" height="1249.000000pt" viewBox="0 0 1249.000000 1249.000000"
 preserveAspectRatio="xMidYMid meet">

<g transform="translate(0.000000,1249.000000) scale(0.100000,-0.100000)"
fill="#000000" stroke="none">
<path d="M6248 10109 c84 -20 59 -32 -230 -105 -202 -51 -407 -115 -698 -219
-60 -22 -138 -41 -184 -46 -48 -6 -107 -22 -154 -41 -90 -38 -434 -209 -627
-312 -131 -71 -185 -90 -185 -66 0 17 72 84 285 266 110 94 209 182 220 194
18 22 19 23 2 17 -63 -23 -320 -228 -581 -462 -196 -176 -236 -203 -272 -186
-23 10 -29 7 -75 -36 -113 -105 -111 -144 2 -58 41 31 75 51 77 46 6 -19 -53
-115 -108 -174 -32 -35 -73 -68 -98 -78 -106 -46 -262 -176 -262 -219 0 -32
-36 -119 -85 -204 -49 -86 -56 -113 -27 -101 27 11 45 11 49 -1 6 -17 -36 -64
-57 -64 -21 0 -52 -37 -100 -123 -18 -32 -55 -86 -82 -120 -65 -80 -98 -148
-138 -277 -17 -58 -65 -211 -105 -340 -101 -322 -117 -388 -122 -510 l-5 -105
31 43 c18 23 36 40 41 37 14 -9 13 -137 -7 -510 -13 -269 -14 -349 -5 -435 7
-58 15 -115 18 -127 11 -39 24 -14 25 45 0 63 13 108 22 82 4 -8 22 -98 42
-200 59 -304 108 -473 250 -859 31 -84 55 -165 53 -180 l-3 -26 -26 28 c-15
15 -48 76 -74 135 -52 118 -73 150 -52 82 54 -176 280 -617 430 -839 85 -127
65 -60 -37 118 -157 276 -229 432 -207 446 13 7 33 -21 91 -125 163 -293 399
-598 695 -899 341 -347 460 -448 790 -667 261 -174 364 -235 607 -356 207
-104 289 -138 333 -138 11 0 56 -18 100 -39 65 -32 98 -42 175 -51 52 -6 138
-21 190 -35 150 -38 397 -64 484 -51 35 6 45 11 48 28 4 25 24 32 124 42 l70
7 47 -60 c50 -65 83 -80 141 -63 45 12 42 27 -11 47 -56 21 -93 51 -93 76 0
23 -30 31 -242 64 -324 50 -945 224 -1309 366 -157 62 -399 216 -579 369 -30
26 -91 71 -135 100 -44 29 -103 72 -131 96 -96 81 -391 437 -516 624 -69 102
-168 289 -168 317 0 56 99 -58 248 -287 102 -156 199 -288 323 -440 80 -99
119 -127 299 -221 36 -19 133 -85 215 -147 90 -67 166 -116 190 -123 64 -18
85 -27 182 -85 96 -57 211 -109 221 -100 12 12 -33 45 -137 100 -105 56 -202
129 -188 142 18 18 316 -118 361 -165 16 -16 31 -44 35 -63 6 -27 12 -33 31
-33 22 0 25 4 23 31 -3 40 12 46 75 34 95 -18 176 -66 218 -130 14 -21 40 -45
57 -54 110 -52 609 -11 751 61 43 22 63 26 133 25 50 0 111 -9 157 -22 72 -20
79 -20 150 -5 61 12 90 13 148 4 72 -10 129 -8 303 12 136 15 192 34 210 68
10 20 30 35 61 47 71 27 103 23 158 -19 54 -41 96 -48 134 -21 29 20 22 30
-25 38 -63 11 -74 17 -82 39 -8 22 -9 22 -362 22 -438 1 -841 32 -1128 86
-202 39 -282 71 -836 339 -96 46 -161 88 -152 96 2 3 78 -18 168 -45 407 -122
749 -162 1394 -163 459 0 588 13 820 88 90 29 296 127 315 149 15 18 5 23
-350 173 -260 110 -446 186 -849 349 -108 43 -150 65 -165 86 -20 27 -21 41
-22 290 0 231 -4 283 -27 437 -15 96 -27 204 -27 240 l0 66 86 78 c96 88 160
168 174 217 12 41 -3 140 -34 229 -34 94 -110 274 -152 357 -20 39 -33 76 -30
81 13 21 169 73 249 83 128 17 345 -4 428 -40 24 -11 70 -22 101 -26 51 -6 58
-5 75 15 40 50 54 60 93 66 22 4 47 12 57 19 29 22 -55 39 -151 31 l-79 -7
-136 65 c-194 92 -243 106 -396 117 -71 5 -197 20 -280 34 -82 13 -198 30
-258 37 -122 14 -127 19 -103 89 l15 43 -41 38 c-33 31 -43 48 -49 86 -4 26
-9 56 -11 67 -2 14 3 21 20 23 32 5 28 17 -19 54 -23 18 -45 44 -50 57 -9 23
-10 23 -137 19 -136 -4 -169 -14 -225 -67 -35 -32 -59 -78 -81 -155 -22 -74
-17 -95 50 -228 l54 -108 -30 0 c-42 0 -213 -58 -345 -117 -60 -27 -140 -62
-178 -77 -115 -48 -140 -73 -196 -188 -27 -57 -70 -161 -97 -232 -26 -71 -70
-166 -97 -210 -71 -118 -109 -196 -103 -212 3 -8 19 -14 39 -14 35 0 53 15 96
80 13 19 43 51 67 70 30 23 59 62 88 114 23 44 85 137 137 207 107 145 116
151 239 153 68 1 79 -2 120 -30 25 -17 91 -54 147 -83 56 -29 120 -69 142 -89
43 -39 201 -257 201 -277 0 -6 -49 -71 -109 -143 -138 -167 -161 -203 -209
-332 -21 -58 -58 -142 -80 -187 l-41 -81 6 -181 6 -181 -34 0 c-19 0 -77 7
-129 15 -236 36 -707 60 -811 40 l-37 -7 -33 63 c-28 53 -42 67 -84 89 -44 22
-61 41 -137 155 -90 133 -218 372 -218 406 0 11 4 19 9 19 18 0 72 -72 107
-143 37 -74 120 -207 128 -207 3 0 -6 30 -20 67 -30 79 -160 450 -211 603 -19
58 -41 138 -49 178 -18 96 -17 266 2 367 26 132 28 188 10 223 -21 41 -20 98
4 289 38 294 70 422 194 781 63 182 123 350 134 374 25 57 305 390 423 503
111 106 231 203 424 342 261 188 341 233 505 283 58 18 150 50 205 72 l100 40
184 -1 c212 -2 277 -12 445 -71 144 -50 176 -66 286 -141 163 -112 250 -189
338 -301 47 -59 87 -107 88 -105 6 6 -68 141 -89 164 -18 20 -35 46 -53 81 -3
7 -4 15 -1 18 22 23 232 -171 307 -283 54 -81 90 -180 90 -250 0 -60 -19 -53
-44 17 -11 30 -21 49 -24 42 -2 -6 12 -91 32 -189 19 -98 38 -198 41 -223 4
-25 16 -55 28 -67 19 -22 20 -30 14 -200 -4 -106 -13 -206 -23 -248 -9 -38
-20 -93 -24 -122 -5 -29 -18 -86 -31 -128 -12 -41 -19 -79 -15 -83 24 -23 90
126 145 330 66 239 71 276 71 503 0 113 4 205 8 205 10 0 25 -42 53 -150 18
-67 23 -112 22 -215 l0 -130 25 58 c17 40 30 57 43 57 23 0 24 -24 4 -73 -15
-37 -20 -112 -9 -142 6 -14 8 -14 32 1 24 15 25 15 19 -1 -4 -9 -10 -29 -14
-43 -3 -15 -12 -36 -19 -47 -27 -44 -46 -310 -21 -303 38 11 120 267 149 465
13 90 15 82 -47 192 -19 33 -25 59 -25 103 0 53 2 59 25 68 32 12 32 38 0 50
-30 12 -40 34 -71 170 -27 118 -27 120 -16 120 15 0 49 -73 71 -149 11 -41 25
-79 31 -85 18 -18 11 26 -20 131 -16 55 -34 123 -40 152 -5 29 -32 105 -59
169 -27 64 -59 152 -70 195 -12 44 -28 92 -36 108 -24 45 -153 195 -248 289
-47 46 -85 86 -83 87 9 9 179 -73 192 -92 8 -13 65 -65 127 -116 202 -169 275
-247 247 -264 -14 -9 -50 15 -143 98 -44 37 -81 66 -84 63 -7 -7 -21 11 188
-246 97 -118 209 -260 251 -315 96 -127 102 -133 128 -110 19 17 20 16 32 -11
7 -16 31 -63 55 -104 23 -41 71 -152 107 -245 35 -94 76 -194 90 -223 18 -35
30 -82 37 -139 6 -48 22 -119 34 -158 13 -40 31 -126 39 -191 17 -125 25 -146
54 -128 48 30 36 294 -28 633 -22 117 -43 224 -46 237 -3 13 -2 24 3 24 15 0
62 -93 94 -187 45 -136 79 -161 79 -59 0 115 -67 323 -206 642 -24 56 -44 105
-44 108 0 36 79 -74 100 -139 7 -22 27 -67 45 -100 19 -33 38 -79 44 -101 6
-23 19 -48 28 -55 15 -12 16 -12 9 6 -13 32 -18 208 -7 225 7 10 13 11 20 5
24 -26 134 -386 171 -565 12 -58 27 -114 33 -125 20 -37 28 31 16 130 -15 128
-23 261 -15 281 19 51 60 -111 43 -173 -9 -35 -5 -52 48 -188 82 -215 116
-295 124 -295 5 0 16 18 26 40 28 62 16 269 -28 471 -32 149 -33 157 -15 168
39 24 12 190 -59 361 -60 147 -205 421 -242 460 -31 32 -46 39 -106 50 -70 12
-71 13 -157 100 -89 89 -106 123 -68 133 23 6 26 25 6 52 -14 19 -15 19 -34 1
-31 -27 -77 -13 -106 32 -28 43 -77 90 -164 158 -103 78 -51 63 62 -19 142
-103 189 -126 173 -84 -6 17 -131 110 -217 163 -35 21 -91 64 -125 94 -33 31
-96 77 -141 104 -44 26 -107 70 -139 97 -65 56 -76 62 -235 137 -213 99 -456
177 -658 211 -302 51 -371 56 -879 56 -528 0 -575 5 -412 41 55 12 136 17 319
20 300 3 469 17 509 40 28 16 30 16 56 -4 34 -27 51 -28 65 -2 9 17 7 22 -17
31 -79 31 -365 57 -712 64 -162 3 -205 2 -173 -6z m2670 -1245 c-4 -3 -12 5
-18 18 -12 22 -12 22 6 6 10 -10 15 -20 12 -24z m107 -84 c3 -5 1 -10 -4 -10
-6 0 -11 5 -11 10 0 6 2 10 4 10 3 0 8 -4 11 -10z m90 -110 c10 -22 15 -43 12
-47 -16 -15 -72 60 -60 80 11 18 31 4 48 -33z m184 -99 c26 -28 51 -89 51
-125 0 -14 -4 -15 -20 -6 -11 6 -18 16 -14 21 3 6 3 26 -1 46 -6 33 -8 35 -35
29 -23 -4 -32 -1 -41 15 -27 51 18 65 60 20z m-94 -29 c-6 -7 -35 18 -35 31 0
5 9 2 20 -8 11 -10 18 -20 15 -23z m-127 -60 c39 -48 38 -63 -2 -31 -30 23
-56 69 -56 96 1 16 2 16 12 -2 6 -11 27 -39 46 -63z m-244 -237 c57 -94 69
-140 20 -80 -52 64 -174 251 -174 265 1 26 92 -84 154 -185z m539 48 c6 2 13
18 15 35 2 18 7 32 11 32 5 0 20 -27 35 -60 28 -61 31 -100 9 -107 -23 -8
-153 129 -153 161 0 6 16 -6 35 -27 20 -21 41 -37 48 -34z m-163 37 c0 -5 -2
-10 -4 -10 -3 0 -8 5 -11 10 -3 6 -1 10 4 10 6 0 11 -4 11 -10z m60 -189 c-1
-10 -6 -7 -15 9 -19 33 -18 50 0 26 8 -11 15 -27 15 -35z m165 -67 c36 -37 65
-133 51 -170 -6 -15 -8 -15 -28 2 -27 24 -68 111 -68 145 0 41 17 50 45 23z
m-5905 -2586 c0 -62 -5 -60 -14 5 -5 31 -4 47 3 47 7 0 11 -22 11 -52z m193
-428 c58 -152 70 -200 50 -207 -15 -5 -55 63 -88 151 -25 66 -66 239 -65 275
1 26 44 -64 103 -219z m2851 -83 c30 -40 48 -88 82 -222 14 -55 52 -188 84
-295 62 -204 77 -270 65 -270 -5 0 -87 24 -184 54 -97 30 -237 71 -311 91 -74
20 -135 37 -137 38 -1 2 -10 62 -19 134 l-16 131 25 55 c33 72 90 133 207 222
148 112 163 116 204 62z m-919 -1717 c50 -27 131 -65 180 -85 121 -50 149 -65
139 -75 -18 -17 -110 14 -250 85 -141 71 -214 117 -214 135 0 13 40 -3 145
-60z m-21 -173 c75 -42 50 -64 -31 -27 -43 19 -59 50 -25 50 9 0 35 -10 56
-23z m736 -122 c205 -69 219 -75 160 -70 -49 4 -72 2 -95 -10 -35 -19 -123
-37 -137 -29 -5 3 2 18 17 34 l26 27 -28 11 c-86 34 -181 41 -241 20 -31 -12
-35 -11 -53 11 -16 19 -17 26 -7 39 18 21 67 41 103 42 17 0 131 -34 255 -75z
m-575 35 c3 -5 2 -10 -4 -10 -5 0 -13 5 -16 10 -3 6 -2 10 4 10 5 0 13 -4 16
-10z m160 -15 c0 -11 -59 -19 -82 -11 -8 3 -11 11 -8 16 8 14 90 9 90 -5z
m215 -91 c47 -19 44 -29 -11 -44 -65 -18 -137 9 -123 45 8 20 82 20 134 -1z
m1471 -13 c32 -26 16 -42 -50 -49 -42 -4 -52 -1 -57 13 -5 12 0 24 15 37 30
23 63 23 92 -1z m-1235 -507 c46 -22 41 -47 -9 -55 -48 -8 -102 3 -102 19 0
12 52 52 68 52 5 0 24 -7 43 -16z"/>
<path d="M5849 10075 c-131 -19 -159 -25 -159 -35 0 -24 203 7 258 39 22 13
14 13 -99 -4z"/>
<path d="M5326 9947 c-38 -12 -71 -28 -73 -34 -5 -15 39 -3 123 32 73 30 43
32 -50 2z"/>
<path d="M4901 9920 c-46 -22 -82 -43 -79 -46 6 -6 168 73 168 81 0 7 3 8 -89
-35z"/>
<path d="M3978 9405 c-32 -25 -58 -48 -58 -51 0 -7 86 55 107 78 26 29 12 21
-49 -27z"/>
<path d="M9304 7743 c41 -143 81 -458 91 -718 9 -261 14 -310 31 -293 27 27
36 127 31 353 -4 191 -8 235 -31 330 -46 195 -97 345 -118 345 -5 0 -7 -8 -4
-17z"/>
<path d="M9790 7544 c0 -35 22 -134 31 -134 28 0 20 95 -11 132 -19 23 -19 23
-20 2z"/>
<path d="M9268 7353 c-4 -51 16 -123 34 -123 17 0 21 32 9 86 -8 34 -18 54
-27 54 -8 0 -15 -8 -16 -17z"/>
<path d="M9291 7124 c0 -11 3 -14 6 -6 3 7 2 16 -1 19 -3 4 -6 -2 -5 -13z"/>
<path d="M9756 6837 c-9 -33 -7 -120 3 -136 18 -28 33 26 26 90 -7 64 -19 82
-29 46z"/>
<path d="M9157 6764 c-4 -4 -7 -38 -7 -76 0 -53 3 -68 15 -68 19 0 27 34 23
95 -3 45 -15 65 -31 49z"/>
<path d="M2645 6588 c-4 -24 -5 -63 -3 -88 4 -45 4 -45 16 -17 14 33 16 147 3
147 -6 0 -13 -19 -16 -42z"/>
<path d="M9128 6524 c-5 -4 -8 -16 -8 -28 0 -14 3 -17 11 -9 6 6 9 19 7 28 -1
9 -6 13 -10 9z"/>
<path d="M2851 5410 c-1 -27 46 -210 56 -220 3 -3 3 18 0 45 -7 62 -55 210
-56 175z"/>
<path d="M3571 3888 c35 -52 69 -87 69 -71 0 5 -23 34 -51 64 l-50 54 32 -47z"/>
<path d="M3910 3511 c0 -15 99 -115 107 -108 3 3 -3 17 -13 30 -30 37 -94 90
-94 78z"/>
</g>
</svg>
