<?xml version="1.0" standalone="no"?>
<!DOCTYPE svg PUBLIC "-//W3C//DTD SVG 20010904//EN"
 "http://www.w3.org/TR/2001/REC-SVG-20010904/DTD/svg10.dtd">
<svg version="1.0" xmlns="http://www.w3.org/2000/svg"
 width="999.000000pt" height="999.000000pt" viewBox="0 0 999.000000 999.000000"
 preserveAspectRatio="xMidYMid meet">

<g transform="translate(0.000000,999.000000) scale(0.100000,-0.100000)"
fill="#000000" stroke="none">
<path d="M4670 8085 c-224 -12 -332 -25 -387 -46 -25 -9 -25 -10 -8 -29 18
-20 18 -20 40 0 25 24 38 25 54 6 8 -9 49 -16 134 -20 67 -4 161 -9 209 -11
48 -3 105 -1 127 4 21 4 61 5 87 0 177 -30 185 -32 172 -44 -13 -13 -251 -17
-366 -5 -198 19 -605 -12 -840 -66 -85 -19 -325 -99 -354 -118 -13 -8 -63 -31
-113 -52 -64 -27 -104 -52 -140 -87 -27 -27 -85 -67 -128 -89 -49 -26 -83 -50
-92 -67 -8 -16 -49 -48 -102 -79 -89 -53 -183 -126 -183 -143 0 -21 34 -5 117
57 95 71 122 88 129 81 3 -2 -21 -24 -53 -47 -89 -68 -133 -111 -133 -130 0
-27 -70 -44 -85 -20 -10 16 -21 12 -33 -14 -10 -22 -8 -25 10 -28 40 -6 30
-28 -44 -104 -70 -72 -76 -75 -131 -83 -37 -5 -65 -15 -81 -30 -45 -42 -201
-357 -234 -471 -36 -127 -39 -200 -8 -200 12 0 13 -7 5 -32 -5 -18 -20 -90
-34 -161 -29 -147 -33 -273 -10 -317 9 -17 18 -30 20 -30 9 0 35 60 74 167 21
59 48 128 59 153 18 39 19 48 7 66 -10 15 -11 31 -4 60 5 21 11 51 14 67 3 15
9 27 14 27 19 0 22 -79 7 -160 -18 -92 -21 -186 -6 -195 10 -6 23 36 40 135
13 70 66 253 107 369 24 67 28 72 41 55 14 -19 12 -120 -4 -174 -7 -22 -5 -23
8 -12 9 7 18 29 22 50 3 20 20 57 36 81 17 24 30 54 30 66 0 23 46 102 73 124
23 19 22 15 -23 -82 -22 -47 -40 -90 -40 -97 0 -7 -19 -53 -41 -104 -83 -183
-122 -431 -56 -358 8 9 21 40 28 67 14 60 56 150 78 168 12 10 14 9 8 -5 -3
-10 -14 -60 -22 -110 -9 -51 -25 -138 -37 -193 -24 -117 -35 -347 -19 -387 12
-31 35 -37 45 -11 4 9 11 58 16 109 5 58 17 110 31 141 14 31 22 70 24 113 1
45 8 76 22 100 12 19 38 80 58 135 64 178 86 227 115 270 16 23 32 54 36 68 7
30 19 35 28 12 9 -26 34 -6 90 74 29 42 112 146 182 231 170 205 198 240 185
240 -5 0 -44 -31 -85 -70 -73 -68 -106 -85 -106 -56 0 23 69 92 190 190 63 51
114 98 113 104 -3 11 17 22 121 63 l50 20 -72 -66 c-64 -60 -169 -181 -209
-241 -8 -13 -21 -53 -29 -90 -7 -37 -34 -110 -59 -163 -25 -54 -45 -110 -45
-127 0 -16 -11 -60 -24 -99 -29 -88 -38 -135 -26 -135 5 0 14 19 20 43 6 23
16 58 21 77 10 37 48 94 49 72 0 -25 -32 -167 -45 -199 -10 -23 -21 -33 -36
-33 -15 0 -19 -4 -15 -16 3 -9 6 -17 6 -20 0 -2 7 -1 15 2 19 8 29 -34 20 -92
-4 -28 -17 -57 -36 -78 -35 -41 -36 -63 -8 -199 32 -162 69 -268 103 -296 14
-12 16 -9 15 25 -1 81 -17 206 -26 213 -5 3 -13 18 -16 33 -4 14 -10 34 -14
45 -6 17 -6 17 14 0 19 -16 21 -16 27 -2 11 31 6 101 -10 123 -18 25 -13 52
10 52 12 0 31 -38 49 -100 3 -8 3 31 0 87 -3 80 1 119 17 185 41 163 57 176
53 41 -9 -245 -10 -240 62 -508 32 -119 82 -235 101 -235 18 0 18 5 -6 73 -11
31 -20 70 -20 87 0 16 -6 47 -14 67 -16 42 -29 174 -31 305 -1 73 2 87 16 91
11 3 18 21 23 61 3 30 20 119 37 197 17 77 28 143 26 146 -3 2 -13 -21 -23
-51 -25 -73 -40 -72 -36 2 4 70 34 137 97 221 51 66 188 191 212 191 17 0 17
-15 -2 -30 -8 -7 -15 -19 -15 -27 0 -7 -7 -16 -16 -20 -8 -3 -27 -31 -40 -62
-14 -30 -32 -64 -42 -76 -11 -13 -7 -11 12 5 15 14 45 50 66 80 47 67 100 118
208 198 115 85 162 112 272 150 160 57 184 62 354 64 l161 3 95 -38 c52 -21
129 -47 170 -58 92 -25 171 -67 320 -172 295 -206 432 -326 574 -502 44 -55
100 -122 125 -148 41 -44 51 -66 127 -290 46 -133 92 -267 103 -298 30 -83 68
-281 88 -460 16 -149 16 -159 0 -177 -21 -23 -22 -85 -3 -138 7 -22 17 -87 21
-145 9 -139 -9 -235 -79 -422 -29 -78 -72 -200 -95 -272 -24 -71 -49 -142 -57
-157 -26 -51 -4 -29 40 40 24 37 53 90 65 118 21 49 75 113 86 102 16 -16 -76
-199 -175 -346 -66 -99 -93 -127 -124 -127 -16 0 -28 -14 -50 -58 l-29 -57
-36 7 c-87 19 -508 -6 -691 -41 -62 -11 -72 -11 -77 1 -3 9 -3 76 0 150 l6
134 -34 63 c-19 34 -48 102 -64 150 -34 102 -52 131 -158 256 -43 51 -84 101
-91 111 -12 15 -8 25 35 81 27 35 57 77 67 93 35 58 72 87 153 125 46 21 102
53 126 70 49 35 67 38 153 26 53 -7 63 -12 78 -38 10 -16 39 -55 65 -86 50
-60 131 -190 131 -210 0 -6 21 -25 46 -43 26 -17 52 -46 60 -64 7 -18 24 -39
37 -48 27 -18 67 -12 67 10 0 19 -36 87 -82 155 -21 32 -52 95 -68 142 -44
124 -96 244 -125 287 -28 42 -68 66 -178 105 -39 15 -94 39 -122 54 -56 31
-203 80 -241 80 l-25 0 35 63 c20 35 43 83 51 107 15 43 15 49 -7 119 -36 119
-102 161 -251 161 -81 0 -117 -8 -96 -20 8 -5 -1 -17 -29 -35 -50 -33 -61 -55
-27 -55 25 0 33 -14 16 -24 -5 -3 -9 -22 -8 -43 1 -30 -5 -42 -38 -70 -34 -30
-38 -36 -27 -53 7 -11 12 -33 12 -50 0 -28 -3 -30 -37 -30 -38 0 -260 -32
-346 -50 -27 -5 -83 -10 -126 -10 -106 0 -176 -20 -319 -92 -121 -61 -123 -61
-170 -50 -34 7 -60 7 -94 0 -69 -16 -64 -26 21 -43 23 -5 38 -16 50 -37 15
-29 18 -30 72 -25 31 3 67 12 80 20 52 34 286 50 386 27 69 -16 151 -50 156
-64 3 -8 -7 -34 -23 -59 -16 -25 -40 -77 -54 -116 -14 -39 -37 -93 -51 -121
-14 -28 -32 -84 -41 -124 -22 -109 -12 -138 84 -234 42 -42 88 -86 101 -96 23
-17 24 -22 18 -100 -3 -44 -15 -137 -26 -206 -24 -147 -26 -188 -16 -336 5
-78 4 -127 -5 -163 -14 -61 8 -48 -270 -156 -181 -71 -829 -342 -840 -352 -20
-18 161 -109 290 -146 179 -52 278 -62 625 -62 512 0 840 42 1155 146 51 17
94 29 96 26 10 -10 -106 -79 -181 -108 -44 -17 -120 -52 -170 -79 -263 -141
-430 -182 -875 -215 -317 -24 -444 -28 -588 -17 -148 11 -172 8 -172 -19 0
-13 -10 -20 -37 -24 -21 -4 -47 -10 -58 -14 -18 -7 -17 -9 12 -24 45 -24 60
-21 106 18 46 39 52 40 122 17 37 -13 51 -23 53 -39 4 -26 35 -38 142 -52 138
-18 215 -21 274 -11 46 7 73 6 117 -5 52 -14 60 -13 114 5 68 23 190 27 214 7
51 -43 259 -77 464 -77 134 0 169 10 195 54 37 63 133 116 210 116 33 0 34 -1
29 -30 -6 -27 -4 -30 18 -30 21 0 25 5 25 28 0 47 51 83 213 152 54 23 101 39
104 36 14 -14 -51 -69 -132 -109 -100 -49 -144 -80 -128 -90 13 -8 142 54 215
104 33 22 70 39 85 39 35 0 63 17 193 120 69 55 139 99 205 130 57 28 114 62
132 81 75 81 254 317 299 395 53 94 177 259 200 268 25 10 15 -30 -29 -116
-57 -110 -103 -178 -221 -328 -167 -210 -264 -316 -324 -356 -113 -73 -135
-89 -194 -141 -66 -59 -267 -197 -343 -236 -99 -49 -325 -127 -603 -206 -289
-83 -412 -111 -562 -131 -147 -19 -182 -30 -177 -52 6 -21 -17 -39 -75 -58
-43 -13 -48 -25 -15 -34 61 -16 84 -8 123 45 l37 51 71 -7 c83 -8 86 -10 86
-36 0 -17 8 -19 98 -19 115 0 279 22 342 46 25 9 86 20 135 24 77 6 97 11 139
38 28 18 62 32 76 32 35 0 139 36 160 55 10 9 68 38 131 66 109 48 258 134
419 242 41 27 116 77 165 111 50 33 128 92 175 130 112 92 400 376 504 496
157 180 334 432 414 587 36 71 60 89 54 42 -4 -38 -75 -179 -168 -336 -47 -78
-84 -149 -81 -156 9 -26 204 300 298 498 58 121 113 264 105 272 -2 2 -21 -37
-42 -87 -37 -91 -67 -140 -85 -140 -19 0 -7 46 50 193 97 252 145 419 191 667
12 63 24 126 27 140 6 22 7 23 14 5 4 -11 8 -45 8 -75 1 -81 19 -50 32 56 7
50 9 139 5 204 -3 63 -11 212 -17 331 -13 248 -8 277 35 213 l26 -39 0 62 c0
95 -23 194 -99 425 -38 117 -77 242 -86 278 -23 92 -57 161 -105 214 -23 24
-60 80 -83 123 -35 65 -46 78 -67 78 -16 0 -29 9 -39 27 -19 33 -9 45 24 30
35 -16 33 2 -10 68 -37 58 -75 148 -75 179 0 10 -12 31 -27 46 -44 43 -164
125 -185 125 -27 0 -111 89 -142 151 -14 29 -24 54 -22 57 2 2 30 -17 61 -42
30 -25 60 -46 65 -46 22 0 7 26 -45 78 -46 46 -57 53 -70 42 -27 -22 -60 -2
-176 106 -237 221 -505 431 -525 411 -2 -2 73 -69 168 -149 215 -180 263 -227
250 -240 -13 -13 -67 11 -238 108 -76 43 -213 112 -306 155 -145 67 -174 77
-220 77 -42 -1 -87 12 -213 59 -188 71 -343 119 -550 168 -187 45 -206 58
-108 75 44 7 42 8 -32 7 -44 0 -186 -6 -315 -12z m-1800 -986 c-7 -11 -14 -18
-17 -15 -3 3 0 12 7 21 18 21 23 19 10 -6z m-85 -79 c-3 -5 -11 -10 -16 -10
-6 0 -7 5 -4 10 3 6 11 10 16 10 6 0 7 -4 4 -10z m-45 -68 c0 -10 -11 -29 -25
-42 -20 -19 -25 -20 -25 -7 0 26 22 67 37 67 7 0 13 -8 13 -18z m-136 -80 c3
-5 2 -19 -1 -31 -4 -15 -11 -20 -22 -16 -30 12 -33 10 -43 -19 -7 -20 -7 -30
0 -35 7 -4 4 -11 -8 -19 -24 -14 -25 -6 -10 47 15 55 67 100 84 73z m46 -27
c-7 -8 -17 -15 -22 -15 -6 0 -5 7 2 15 7 8 17 15 22 15 6 0 5 -7 -2 -15z m120
-35 c-13 -30 -59 -75 -68 -65 -3 2 12 23 32 45 20 22 36 45 36 52 0 6 3 8 6 5
4 -4 1 -20 -6 -37z m277 -75 c-12 -30 -148 -225 -157 -225 -6 0 -10 2 -10 6 0
13 82 143 117 186 38 46 60 61 50 33z m-567 -75 c0 -40 22 -39 54 3 35 44 33
19 -3 -30 -30 -41 -77 -83 -93 -83 -20 0 -19 33 3 85 25 61 39 70 39 25z m160
6 c0 -3 -4 -8 -10 -11 -5 -3 -10 -1 -10 4 0 6 5 11 10 11 6 0 10 -2 10 -4z
m-50 -146 c-16 -31 -23 -18 -8 15 7 15 14 23 16 17 2 -6 -2 -21 -8 -32z m-110
-83 c0 -34 -51 -127 -70 -127 -13 0 -13 61 1 97 25 65 69 85 69 30z m4695
-2065 c-10 -56 -17 -29 -9 35 6 42 9 50 12 29 2 -16 1 -45 -3 -64z m-79 -159
c-3 -10 -12 -54 -20 -98 -17 -93 -78 -235 -103 -235 -21 0 -14 33 31 147 62
160 81 203 89 203 5 0 6 -8 3 -17z m-2211 -273 c100 -74 143 -118 172 -174 22
-43 24 -57 18 -100 -4 -28 -10 -78 -14 -110 l-6 -59 -110 -29 c-60 -15 -174
-48 -252 -73 -77 -25 -144 -45 -146 -45 -12 0 8 83 54 225 27 83 56 186 65
229 19 91 46 161 76 193 25 27 36 22 143 -57z m689 -1301 c-20 -22 -229 -131
-298 -155 -42 -15 -91 -10 -65 7 8 5 55 25 104 44 50 20 124 55 165 80 41 24
84 44 94 45 19 0 19 0 0 -21z m-29 -159 c8 -12 -33 -38 -73 -46 -27 -5 -31 -4
-26 9 3 8 22 22 42 31 45 18 49 19 57 6z m-382 -67 c31 -15 33 -39 5 -57 -13
-8 -23 -8 -38 2 -26 16 -82 15 -149 -2 -66 -18 -72 -24 -43 -43 12 -9 22 -20
22 -25 0 -14 -103 2 -116 19 -9 10 -28 12 -80 8 l-69 -6 70 20 c39 11 126 40
195 65 128 46 147 47 203 19z m212 -13 c-3 -5 -11 -10 -16 -10 -6 0 -7 5 -4
10 3 6 11 10 16 10 6 0 7 -4 4 -10z m-75 -16 c0 -11 -9 -14 -37 -12 -52 4 -56
28 -4 28 30 0 41 -4 41 -16z m-137 -68 c13 -34 -61 -55 -113 -33 l-35 15 35
15 c45 21 106 22 113 3z m-1208 -10 c12 -8 16 -19 11 -31 -5 -14 -14 -17 -47
-12 -54 7 -71 23 -45 43 25 18 57 18 81 0z m986 -416 c21 -17 22 -21 9 -30
-23 -16 -115 -8 -115 10 0 16 40 40 66 40 9 0 27 -9 40 -20z"/>
<path d="M5265 8049 c75 -25 175 -36 175 -21 0 12 -18 16 -143 32 -101 13
-104 12 -32 -11z"/>
<path d="M5682 7956 c69 -29 123 -43 114 -28 -7 12 -82 37 -136 47 -28 4 -24
1 22 -19z"/>
<path d="M6025 7944 c61 -33 115 -56 115 -49 0 7 -110 61 -140 69 -14 4 -2 -5
25 -20z"/>
<path d="M6758 7552 c18 -16 54 -44 80 -62 l47 -32 -33 30 c-18 16 -54 44 -80
62 l-47 32 33 -30z"/>
<path d="M2523 6174 c-33 -77 -69 -207 -88 -322 -23 -134 -18 -410 7 -457 12
-22 18 -26 21 -15 3 8 8 105 11 215 5 199 29 412 62 539 21 80 14 102 -13 40z"/>
<path d="M2135 6020 c-17 -32 -20 -86 -6 -95 11 -6 17 12 27 78 7 54 1 60 -21
17z"/>
<path d="M2554 5889 c-11 -19 -23 -81 -17 -95 8 -21 18 -17 31 11 23 49 10
123 -14 84z"/>
<path d="M2552 5695 c0 -16 2 -22 5 -12 2 9 2 23 0 30 -3 6 -5 -1 -5 -18z"/>
<path d="M2165 5447 c-8 -55 -4 -89 13 -95 9 -3 12 15 12 67 0 79 -15 95 -25
28z"/>
<path d="M2644 5409 c-11 -18 -7 -100 5 -112 18 -18 26 1 26 60 0 54 -14 79
-31 52z"/>
<path d="M7855 5297 c-10 -23 1 -117 15 -131 12 -12 12 85 0 124 -6 22 -8 23
-15 7z"/>
<path d="M2681 5208 c-1 -16 4 -28 9 -28 12 0 12 8 0 35 -8 18 -9 17 -9 -7z"/>
<path d="M7707 4343 c-14 -23 -47 -150 -46 -177 1 -27 4 -23 19 26 18 56 40
158 34 158 -1 0 -5 -3 -7 -7z"/>
<path d="M7118 3108 c-19 -24 -38 -50 -43 -58 -8 -13 -7 -13 8 -1 26 21 80 91
75 97 -3 2 -21 -15 -40 -38z"/>
<path d="M6816 2777 c-25 -24 -46 -50 -46 -58 0 -7 23 10 52 38 64 64 58 82
-6 20z"/>
</g>
</svg>
